<svg width="122" height="76" viewBox="0 0 122 76" fill="none" xmlns="http://www.w3.org/2000/svg">
<path d="M0 4C0 1.79086 1.79086 0 4 0H118C120.209 0 122 1.79086 122 4V72C122 74.2091 120.209 76 118 76H4C1.79086 76 0 74.2091 0 72V4Z" fill="white"/>
<path fill-rule="evenodd" clip-rule="evenodd" d="M4 0C1.79086 0 0 1.79083 0 4V72C0 74.2092 1.79086 76 4 76H118C120.209 76 122 74.2092 122 72V4C122 1.79083 120.209 0 118 0H4ZM20.4346 37.5196C20.2451 37.7291 19.9757 37.8487 19.6931 37.8487H19V18.5C19 17.6716 19.6716 17 20.5 17H59V25.9069C59 26.4117 58.8091 26.8979 58.4656 27.2678L31.0912 56.7479C31.0021 56.8439 31.0701 57 31.2011 57H39.9219C40.4871 57 41.0258 56.7609 41.405 56.3418L57.5654 38.4804C57.7549 38.2709 58.0243 38.1513 58.3069 38.1513H59V59H20.5C19.6716 59 19 58.3284 19 57.5V50.0931C19 49.5883 19.1909 49.1021 19.5344 48.7322L46.9088 19.2521C46.9979 19.1561 46.9299 19 46.7989 19H38.0781C37.5129 19 36.9742 19.2391 36.595 19.6582L20.4346 37.5196ZM101.565 37.5196C101.755 37.7291 102.024 37.8487 102.307 37.8487H103V18.5C103 17.6716 102.328 17 101.5 17H63V25.9069C63 26.4117 63.1909 26.8979 63.5344 27.2678L90.9088 56.7479C90.9979 56.8439 90.9299 57 90.7989 57H82.0781C81.5129 57 80.9742 56.7609 80.595 56.3418L64.4346 38.4804C64.2451 38.2709 63.9757 38.1513 63.6931 38.1513H63V59H101.5C102.328 59 103 58.3284 103 57.5V50.0931C103 49.5883 102.809 49.1021 102.466 48.7322L75.0912 19.2521C75.0021 19.1561 75.0701 19 75.2011 19H83.9219C84.4871 19 85.0258 19.2391 85.405 19.6582L101.565 37.5196Z" fill="black"/>
</svg>
